<?xml version="1.0" standalone="no"?>
<!DOCTYPE svg PUBLIC "-//W3C//DTD SVG 20010904//EN"
 "http://www.w3.org/TR/2001/REC-SVG-20010904/DTD/svg10.dtd">
<svg version="1.0" xmlns="http://www.w3.org/2000/svg"
 width="200.000000pt" height="128.000000pt" viewBox="0 0 200.000000 128.000000"
 preserveAspectRatio="xMidYMid meet">
<metadata>
Created by potrace 1.10, written by Peter Selinger 2001-2011
</metadata>
<g transform="translate(0.000000,128.000000) scale(0.100000,-0.100000)"
fill="#FFD800" stroke="none">
<path d="M278 1160 c-116 -44 -188 -134 -221 -275 -18 -79 -5 -130 42 -162 42
-28 61 -29 89 -3 21 20 21 21 3 51 -15 24 -18 45 -15 96 7 140 106 225 252
217 99 -6 173 -56 208 -141 21 -50 19 -141 -4 -193 -19 -44 -53 -90 -66 -90
-3 0 -6 22 -6 49 0 69 -20 151 -40 161 -9 5 -26 6 -38 3 -19 -5 -20 -7 -8 -27
21 -33 29 -66 16 -66 -28 0 -84 -36 -101 -64 -48 -78 0 -166 81 -149 l32 6 -6
-39 c-16 -99 -49 -164 -83 -164 -13 0 -12 -5 7 -25 26 -27 66 -33 93 -13 27
21 47 95 47 175 l0 75 49 44 c79 71 110 178 89 306 -29 180 -242 296 -420 228z
m207 -14 c11 -4 32 -12 46 -18 53 -19 129 -110 129 -153 0 -8 5 -15 10 -15 6
0 10 -9 10 -20 0 -31 -17 -24 -29 13 -38 116 -197 184 -325 141 -56 -19 -121
-75 -148 -128 -24 -48 -30 -157 -9 -194 27 -49 -29 -65 -75 -21 -21 19 -23 29
-20 88 3 67 43 169 84 216 30 35 85 72 132 88 46 15 158 17 195 3z m202 -313
c-2 -16 -4 -5 -4 22 0 28 2 40 4 28 2 -13 2 -35 0 -50z m-156 -27 c1 -12 2
-46 3 -76 1 -38 6 -60 19 -73 18 -18 19 -17 48 13 28 29 48 66 53 99 4 21 26
26 26 7 0 -9 -4 -16 -10 -16 -5 0 -10 -8 -10 -17 0 -26 -37 -83 -80 -123 -37
-35 -38 -37 -38 -107 0 -67 -14 -132 -35 -160 -12 -16 -53 -17 -62 -2 -4 6 2
20 12 32 24 26 52 96 55 134 3 48 -10 70 -40 71 -45 0 -50 1 -66 18 -20 19
-21 74 -1 100 17 22 20 12 4 -17 -8 -17 -5 -25 21 -49 36 -34 47 -36 77 -15
17 12 20 22 15 62 -2 27 -9 54 -14 60 -6 7 -7 21 -3 30 13 29 14 43 4 43 -5 0
-9 10 -9 23 1 21 1 22 15 3 8 -11 15 -29 16 -40z m-27 -78 c3 -13 6 -40 6 -60
0 -32 -3 -38 -21 -38 -59 0 -78 52 -34 95 30 31 41 31 49 3z"/>
<path d="M945 922 c-47 -10 -65 -45 -83 -162 l-7 -45 -53 -3 c-71 -4 -70 -42
1 -42 28 0 77 51 77 80 0 27 18 96 33 128 6 13 19 22 32 22 31 0 37 -11 16
-29 -35 -30 -84 -151 -61 -151 5 0 13 12 16 28 11 44 42 99 67 119 13 10 22
24 19 31 -5 17 -33 29 -57 24z"/>
<path d="M1674 903 c-23 -16 -50 -90 -58 -158 -2 -14 -16 -93 -23 -129 -3 -19
-2 -26 6 -22 6 4 11 17 11 28 0 12 2 19 4 17 3 -2 1 -36 -3 -74 -5 -39 -9 -58
-10 -43 -4 99 -100 120 -138 30 -25 -57 -23 -164 3 -199 23 -31 75 -43 99 -23
10 9 20 7 39 -5 14 -10 32 -15 40 -12 13 5 13 10 1 34 -20 43 -24 118 -9 228
18 141 45 225 87 272 25 28 19 57 -13 61 -14 1 -30 -1 -36 -5z m41 -22 c3 -5
1 -13 -5 -16 -11 -7 -39 -64 -59 -120 -10 -28 -10 -27 -7 15 5 63 13 90 32
111 19 21 30 24 39 10z m-175 -294 c0 -2 -9 -15 -21 -28 -11 -13 -23 -36 -26
-51 -3 -16 -11 -28 -17 -28 -6 0 -5 -4 3 -9 12 -8 12 -12 2 -25 -9 -11 -10
-16 -2 -16 6 0 11 -7 11 -15 0 -8 -7 -15 -15 -15 -31 0 -7 150 28 175 20 14
37 19 37 12z m40 -111 c-1 -83 -13 -116 -43 -116 -16 0 -35 47 -35 85 -1 62
35 129 63 118 12 -4 15 -24 15 -87z m27 -38 c-3 -8 -6 -5 -6 6 -1 11 2 17 5
13 3 -3 4 -12 1 -19z m8 -96 c-3 -3 -13 2 -23 12 -12 14 -14 20 -4 23 6 3 12
14 13 26 1 12 5 5 10 -17 5 -21 7 -41 4 -44z m-115 33 c0 -8 5 -15 10 -15 6 0
10 -4 10 -10 0 -16 -22 -12 -36 8 -18 23 -17 32 1 32 8 0 15 -7 15 -15z"/>
<path d="M1340 806 c-24 -30 -152 -61 -345 -86 -69 -9 -84 -14 -107 -39 -23
-26 -27 -27 -34 -13 -11 26 -24 -62 -30 -218 -7 -148 -6 -151 50 -164 25 -6
28 -5 21 11 -22 55 -27 96 -21 188 7 120 15 178 24 187 4 3 75 9 157 12 303
12 323 19 317 114 -2 25 -14 28 -32 8z m17 -35 c3 -35 -22 -46 -127 -58 -50
-6 -54 -5 -41 10 7 10 26 17 42 17 31 0 76 18 97 37 19 18 28 16 29 -6z m-191
-58 c-3 -4 -23 -8 -43 -10 -42 -3 -38 6 9 16 34 8 46 6 34 -6z m-307 -273 c-1
-81 -5 -120 -12 -117 -10 3 -11 114 -2 163 2 10 4 31 4 47 1 15 3 27 6 27 3 0
5 -54 4 -120z"/>
<path d="M1280 602 c-60 -49 7 -132 83 -103 l25 10 -19 -71 c-19 -78 -30 -94
-53 -85 -12 5 -16 20 -16 55 0 82 -62 117 -75 42 -9 -54 1 -93 32 -124 29 -30
43 -32 82 -12 70 37 92 222 33 281 -29 30 -61 32 -92 7z m64 -8 c24 -9 19 -23
-5 -17 -15 4 -27 -1 -39 -17 -21 -28 -35 -11 -14 18 16 23 30 27 58 16z m20
-43 c17 -19 17 -20 -2 -30 -12 -6 -28 -8 -36 -5 -19 7 -21 40 -3 47 20 9 23 8
41 -12z m-96 -93 c7 -7 12 -31 12 -54 0 -33 5 -47 22 -58 26 -18 19 -31 -11
-21 -29 9 -52 58 -49 105 2 42 7 47 26 28z"/>
<path d="M1120 575 c-23 -38 -31 -41 -60 -25 -28 15 -48 -21 -69 -124 -16 -80
-31 -120 -31 -83 0 10 -4 17 -10 17 -16 0 -12 171 5 200 13 23 14 17 10 -65
-4 -79 -3 -83 5 -34 5 30 15 74 23 97 14 41 14 42 -8 42 -45 0 -60 -33 -62
-137 -2 -96 5 -126 36 -150 25 -19 29 -16 37 30 4 23 8 44 9 47 1 3 5 21 9 40
20 89 42 121 62 89 4 -8 9 -7 15 2 6 9 9 10 9 2 0 -6 -7 -18 -15 -26 -8 -9
-11 -17 -6 -19 4 -2 5 -12 1 -23 -7 -17 -9 -15 -18 15 -10 33 -10 31 -11 -32
-1 -36 -4 -73 -7 -82 -4 -11 0 -16 14 -16 16 0 21 9 26 53 9 70 34 145 59 173
26 31 38 22 32 -24 -2 -20 -7 -62 -10 -91 -8 -75 -19 -80 -13 -6 6 64 -4 118
-14 79 -2 -10 -5 -50 -6 -89 -3 -108 -13 -195 -22 -190 -5 3 -51 1 -102 -5
-51 -6 -176 -12 -278 -12 -226 -2 -299 13 -363 74 -37 35 -41 36 -53 20 -34
-44 -5 -121 59 -154 36 -19 59 -22 157 -22 114 -1 145 2 310 24 47 7 92 13
100 14 21 3 108 16 146 22 28 4 32 1 37 -25 9 -42 34 -64 66 -56 33 8 36 12
23 28 -6 7 -15 24 -21 39 l-10 26 132 12 c106 11 153 11 237 1 120 -15 218
-39 278 -70 51 -26 52 -26 52 0 0 56 -53 84 -187 97 -97 10 -434 8 -482 -3
l-33 -7 5 133 c2 74 8 152 11 173 11 65 -38 79 -74 21z m-761 -291 c25 -26 81
-59 81 -48 0 4 6 1 13 -5 29 -23 365 -36 428 -16 10 4 27 2 36 -4 14 -8 9 -10
-23 -9 -22 0 -49 -4 -60 -10 -26 -15 -183 -32 -290 -32 -105 0 -152 11 -194
46 -24 21 -30 34 -30 65 0 46 6 48 39 13z m795 3 c1 -8 8 -23 16 -32 10 -13
11 -21 3 -35 -7 -9 -8 -21 -3 -26 4 -5 11 -19 15 -31 4 -17 2 -23 -8 -23 -21
0 -62 89 -48 103 6 6 11 24 11 41 0 29 10 31 14 3z m638 -64 c36 -5 77 -37 65
-49 -4 -4 -18 1 -31 10 -14 9 -34 16 -46 16 -11 0 -20 5 -20 10 0 6 -16 10
-35 10 -19 0 -35 5 -35 11 0 6 12 8 33 4 17 -3 49 -8 69 -12z"/>
<path d="M1727 599 c-21 -12 -55 -76 -58 -110 -10 -111 23 -169 95 -169 48 0
76 22 76 58 0 26 1 26 -39 6 -17 -9 -39 -13 -47 -10 -11 4 -6 13 22 38 63 55
83 139 44 178 -22 22 -64 26 -93 9z m77 -24 c11 -9 16 -20 12 -31 -6 -16 -8
-16 -26 1 -18 17 -20 16 -50 -16 -16 -18 -30 -41 -30 -50 0 -10 -3 -24 -6 -33
-3 -9 -1 -16 5 -16 5 0 15 17 20 38 6 21 17 46 25 57 14 19 16 19 31 4 15 -15
15 -19 2 -45 -8 -16 -24 -37 -35 -47 -12 -11 -18 -25 -15 -35 5 -11 3 -13 -6
-7 -10 6 -11 3 -1 -15 9 -17 19 -21 45 -18 23 3 31 0 28 -8 -15 -40 -98 -11
-109 38 -15 69 -5 138 25 168 29 31 57 36 85 15z"/>
<path d="M656 559 c-70 -55 -76 -222 -8 -258 16 -9 54 -14 79 -12 22 2 43 32
43 62 l0 30 -26 -20 c-28 -22 -59 -27 -68 -13 -3 5 5 15 18 21 36 20 76 90 76
133 0 70 -60 100 -114 57z m78 -15 c9 -8 16 -20 16 -25 0 -12 -23 -12 -36 1
-15 15 -62 -35 -70 -75 -5 -27 -2 -41 11 -55 9 -10 14 -24 10 -30 -13 -22 16
-41 54 -35 35 6 36 6 11 -9 -20 -12 -30 -12 -55 -2 -38 15 -55 48 -55 105 0
60 18 105 49 124 33 21 46 21 65 1z m-7 -50 c8 -20 -21 -75 -47 -92 -18 -11
-20 -9 -20 19 0 61 50 116 67 73z"/>
</g>
</svg>
